Coordinates
version=1
nRows=49
nColumns=12
inDegrees=yes

Units are S.I. units (second, meters, Newtons, ...)
Angles are in degrees

endheader
time	SC_y	SC_z	SC_x	AC_y	AC_z	AC_x	GH_y	GH_z	GH_yy	EL_x	PS_y
       0.0              -26.58          7.729          11.84          56.34         -11.21          13.66          40.11          28.21         -91.01          7.733          159.3
   0.02763              -26.58           7.73          11.84          56.34         -11.21          13.66          40.12          28.21         -91.02          7.743          159.3
   0.05526              -26.58          7.731          11.85          56.34         -11.21          13.66          40.13           28.2         -91.04          7.754          159.3
   0.08288              -26.58          7.732          11.86          56.34         -11.21          13.66          40.14          28.19         -91.05          7.765          159.2
    0.1105              -26.58          7.733          11.86          56.34         -11.21          13.66          40.16          28.19         -91.07          7.776          159.2
    0.1381              -26.58          7.734          11.87          56.34         -11.21          13.66          40.17          28.18         -91.08          7.789          159.2
    0.1658              -26.58          7.735          11.88          56.34         -11.21          13.66          40.19          28.17          -91.1          7.802          159.2
    0.1934              -26.58          7.736          11.89          56.34         -11.21          13.66          40.21          28.16         -91.12          7.817          159.2
     0.221              -26.58          7.738           11.9          56.33          -11.2          13.66          40.22          28.16         -91.14          7.832          159.1
    0.2487              -26.58          7.739          11.91          56.33          -11.2          13.67          40.24          28.15         -91.16          7.849          159.1
    0.2763              -26.58          7.741          11.93          56.33          -11.2          13.67          40.26          28.14         -91.18          7.866          159.1
    0.3039              -26.58          7.742          11.94          56.33          -11.2          13.67          40.29          28.13         -91.21          7.885          159.0
    0.3315              -26.58          7.744          11.95          56.33          -11.2          13.67          40.31          28.11         -91.23          7.906          159.0
    0.3592              -26.58          7.746          11.97          56.33          -11.2          13.67          40.33           28.1         -91.26          7.928          159.0
    0.3868              -26.58          7.748          11.98          56.33          -11.2          13.67          40.36          28.09         -91.29          7.952          158.9
    0.4144              -26.58          7.751           12.0          56.33          -11.2          13.67          40.39          28.07         -91.33          7.978          158.9
    0.4421              -26.58          7.753          12.02          56.33          -11.2          13.67          40.43          28.06         -91.36          8.007          158.8
    0.4697              -26.58          7.756          12.04          56.33         -11.19          13.67          40.46          28.04          -91.4          8.037          158.8
    0.4973              -26.58          7.759          12.06          56.33         -11.19          13.67           40.5          28.02         -91.45          8.071          158.7
    0.5249              -26.57          7.762          12.09          56.33         -11.19          13.67          40.54           28.0          -91.5          8.108          158.7
    0.5526              -26.57          7.766          12.11          56.33         -11.19          13.68          40.59          27.98         -91.55          8.148          158.6
    0.5802              -26.57           7.77          12.14          56.33         -11.19          13.68          40.64          27.95         -91.61          8.193          158.5
    0.6078              -26.57          7.774          12.18          56.33         -11.18          13.68           40.7          27.92         -91.67          8.242          158.4
    0.6354              -26.57          7.779          12.21          56.33         -11.18          13.68          40.76          27.89         -91.74          8.297          158.3
    0.6631              -26.57          7.784          12.25          56.33         -11.18          13.68          40.83          27.86         -91.82          8.357          158.2
    0.6907              -26.57           7.79           12.3          56.33         -11.18          13.69          40.91          27.82         -91.91          8.425          158.1
    0.7183              -26.57          7.797          12.35          56.33         -11.17          13.69           41.0          27.77          -92.0          8.501          158.0
     0.746              -26.57          7.805          12.41          56.33         -11.17          13.69           41.1          27.73         -92.11          8.586          157.8
    0.7736              -26.56          7.813          12.47          56.33         -11.16           13.7          41.21          27.67         -92.24          8.683          157.7
    0.8012              -26.56          7.823          12.55          56.33         -11.16           13.7          41.34          27.61         -92.38          8.792          157.5
    0.8288              -26.56          7.834          12.63          56.33         -11.15           13.7          41.49          27.54         -92.54          8.917          157.3
    0.8565              -26.56          7.847          12.73          56.32         -11.14          13.71          41.65          27.46         -92.73           9.06          157.0
    0.8841              -26.55          7.861          12.84          56.32         -11.14          13.72          41.84          27.36         -92.94          9.226          156.7
    0.9117              -26.55          7.878          12.97          56.32         -11.13          13.72          42.07          27.25         -93.19          9.418          156.4
    0.9394              -26.55          7.898          13.12          56.32         -11.12          13.73          42.33          27.12         -93.48          9.643          156.0
     0.967              -26.54          7.922          13.29          56.32          -11.1          13.74          42.64          26.97         -93.82          9.908          155.6
    0.9946              -26.53           7.95          13.51          56.32         -11.09          13.75           43.0          26.79         -94.23          10.22          155.0
     1.022              -26.53          7.983          13.76          56.31         -11.07          13.77          43.44          26.58         -94.72           10.6          154.4
      1.05              -26.52          8.024          14.07          56.31         -11.05          13.78          43.98          26.32         -95.31          11.06          153.6
     1.078              -26.51          8.073          14.44           56.3         -11.02           13.8          44.63           26.0         -96.03          11.62          152.7
     1.105              -26.49          8.135           14.9           56.3         -10.99          13.83          45.43          25.61         -96.92           12.3          151.5
     1.133              -26.48          8.211          15.48          56.29         -10.94          13.86          46.43          25.12         -98.03          13.16          150.0
      1.16              -26.46          8.307           16.2          56.28         -10.89           13.9          47.69           24.5         -99.43          14.25          148.2
     1.188              -26.43          8.429          17.13          56.27         -10.82          13.95          49.29          23.72         -101.2          15.62          145.8
     1.216               -26.4          8.585          18.31          56.26         -10.74          14.01          51.34          22.72         -103.5          17.38          142.8
     1.243              -26.35          8.786          19.82          56.24         -10.63          14.09          53.97          21.43         -106.4          19.64          138.9
     1.271               -26.3          9.042          21.76          56.21         -10.49           14.2          57.32          19.78         -110.1          22.53          134.0
     1.299              -26.23          9.364          24.19          56.18         -10.31          14.33          61.55          17.72         -114.8          26.16          127.8
     1.326              -26.14          9.756          27.16          56.15         -10.09          14.49          66.69           15.2         -120.5          30.58          120.2
